<svg width="32" height="32" viewBox="0 0 32 32" fill="none" xmlns="http://www.w3.org/2000/svg">
<path d="M7.8 22.8C8.93334 21.9333 10.2 21.25 11.6 20.75C13 20.25 14.4667 20 16 20C17.5333 20 19 20.25 20.4 20.75C21.8 21.25 23.0667 21.9333 24.2 22.8C24.9778 21.8889 25.5833 20.8555 26.0167 19.7C26.45 18.5444 26.6667 17.3111 26.6667 16C26.6667 13.0444 25.6278 10.5278 23.55 8.44999C21.4722 6.37221 18.9556 5.33332 16 5.33332C13.0444 5.33332 10.5278 6.37221 8.45001 8.44999C6.37223 10.5278 5.33334 13.0444 5.33334 16C5.33334 17.3111 5.55 18.5444 5.98334 19.7C6.41667 20.8555 7.02223 21.8889 7.8 22.8ZM16 17.3333C14.6889 17.3333 13.5833 16.8833 12.6833 15.9833C11.7833 15.0833 11.3333 13.9778 11.3333 12.6667C11.3333 11.3555 11.7833 10.25 12.6833 9.34999C13.5833 8.44999 14.6889 7.99999 16 7.99999C17.3111 7.99999 18.4167 8.44999 19.3167 9.34999C20.2167 10.25 20.6667 11.3555 20.6667 12.6667C20.6667 13.9778 20.2167 15.0833 19.3167 15.9833C18.4167 16.8833 17.3111 17.3333 16 17.3333ZM16 29.3333C14.1556 29.3333 12.4222 28.9833 10.8 28.2833C9.17778 27.5833 7.76667 26.6333 6.56667 25.4333C5.36667 24.2333 4.41667 22.8222 3.71667 21.2C3.01667 19.5778 2.66667 17.8444 2.66667 16C2.66667 14.1555 3.01667 12.4222 3.71667 10.8C4.41667 9.17777 5.36667 7.76666 6.56667 6.56666C7.76667 5.36666 9.17778 4.41666 10.8 3.71666C12.4222 3.01666 14.1556 2.66666 16 2.66666C17.8444 2.66666 19.5778 3.01666 21.2 3.71666C22.8222 4.41666 24.2333 5.36666 25.4333 6.56666C26.6333 7.76666 27.5833 9.17777 28.2833 10.8C28.9833 12.4222 29.3333 14.1555 29.3333 16C29.3333 17.8444 28.9833 19.5778 28.2833 21.2C27.5833 22.8222 26.6333 24.2333 25.4333 25.4333C24.2333 26.6333 22.8222 27.5833 21.2 28.2833C19.5778 28.9833 17.8444 29.3333 16 29.3333Z" fill="#1D1B20"/>
</svg>
